<svg width="190" height="46" viewBox="0 0 190 46" fill="none" xmlns="http://www.w3.org/2000/svg">
<g id="logo">
<g id="Group 4">
<path id="Vector" d="M127.12 22.6329H126.233C125.703 19.4369 123.597 17.9256 120.282 18.3765V30.2341H122.1C123.993 30.2341 125.881 30.2142 127.774 30.2341C130.762 30.2688 132.62 29.1687 133.289 26.1312C133.339 25.9033 133.641 25.7299 133.829 25.5267C133.908 25.5862 133.988 25.6456 134.062 25.7051V31.8197H109.202C109.143 31.7404 109.083 31.6661 109.024 31.5868C109.257 31.4134 109.465 31.1508 109.722 31.0863C110.287 30.9476 110.887 30.9526 111.452 30.8188C112.349 30.6107 113.092 29.5255 113.092 28.4403C113.097 21.2455 113.102 14.0556 113.092 6.8608C113.092 5.46346 112.146 4.5319 110.674 4.43775C110.193 4.40802 109.708 4.43775 109.163 4.43775V3.44673H133.19V9.61585H132.303C132.13 6.76666 130.138 5.18598 127.427 5.2603C125.083 5.32472 122.74 5.27517 120.312 5.27517V16.4638C123.116 16.994 126.03 15.4133 126.208 12.0538H127.125V22.628L127.12 22.6329Z" fill="#1E1915"/>
<path id="Vector_2" d="M161.216 32.4539C159.779 32.8305 159.541 31.5868 159.001 30.9625C156.865 28.4899 154.849 25.9132 152.782 23.3811C151.197 21.4338 149.601 19.4864 148.016 17.5341C146.326 15.453 144.641 13.3619 142.956 11.2758C142.446 10.6415 141.936 10.0073 141.296 9.21446V31.8197H135.454C135.132 30.9575 135.915 30.9129 136.336 30.898C138.457 30.8336 139.582 29.6048 139.582 27.1173C139.582 20.9333 139.582 14.7493 139.582 8.5703C139.582 6.15716 138.016 4.54179 135.454 4.40801C135.425 4.13052 135.395 3.83817 135.345 3.40707C135.821 3.40707 136.232 3.40707 136.639 3.40707C139.334 3.40707 142.035 3.4368 144.73 3.38725C145.409 3.37239 145.865 3.61023 146.247 4.09583C149.849 8.65454 153.446 13.2132 157.054 17.767C157.797 18.7035 158.58 19.6004 159.511 20.7153V3.4814H164.947V4.33863C164.68 4.41296 164.397 4.54179 164.1 4.57152C161.721 4.81433 161.266 6.0531 161.241 8.3275C161.166 15.9782 161.211 23.6289 161.211 31.2796C161.211 31.6611 161.211 32.0427 161.211 32.4539H161.216Z" fill="#1E1915"/>
<path id="Vector_3" d="M102.161 3.43682H107.968C107.988 3.74403 108.008 4.03143 108.033 4.38324C107.453 4.42784 106.923 4.39315 106.432 4.51208C104.822 4.91344 104.044 6.0333 104.044 7.89146C104.039 12.5344 104.089 17.1823 104.014 21.8252C103.989 23.3217 103.831 24.8627 103.429 26.3047C102.468 29.7683 99.8965 31.6264 96.5221 32.2756C93.8661 32.7909 91.0913 32.9197 88.4849 32.0675C84.7091 30.8287 82.6131 28.7029 82.4446 24.6249C82.2018 18.7778 82.1968 12.9209 82.2365 7.06891C82.2464 5.59229 81.072 4.2891 79.6152 4.43279C79.3377 4.45757 79.0603 4.43279 78.7233 4.43279C78.6886 4.2445 78.6391 4.08594 78.6292 3.92737C78.6193 3.79358 78.649 3.65484 78.6638 3.45664H89.3322C89.3322 3.87287 89.3322 4.2445 89.3322 4.62109C89.3322 11.1866 89.3173 17.7521 89.352 24.3127C89.352 25.1898 89.5205 26.0916 89.7732 26.934C90.3282 28.807 92.34 30.1548 94.317 30.2341C96.5221 30.3233 98.4942 29.9021 100.075 28.2272C101.378 26.8448 101.893 25.1303 101.933 23.3415C102.072 17.0386 102.102 10.7307 102.171 4.42288C102.171 4.11567 102.171 3.81341 102.171 3.42195L102.161 3.43682Z" fill="#1E1915"/>
<path id="Vector_4" d="M183.598 22.8014C183.36 22.5239 182.954 22.2613 182.914 21.959C182.617 19.6301 180.308 18.2477 178.39 18.2774C177.974 18.2823 177.553 18.2774 177.023 18.2774V31.8346H165.943C165.884 31.7602 165.824 31.6859 165.76 31.6116C165.968 31.4332 166.146 31.1557 166.384 31.0963C166.914 30.9625 167.469 30.9526 168.014 30.8584C169.08 30.6751 169.843 29.8079 169.843 28.7129C169.853 21.3446 169.853 13.9813 169.843 6.61305C169.843 5.48329 168.842 4.51704 167.628 4.44767C167.078 4.41794 166.523 4.44271 165.913 4.44271V3.45169H189.946V9.59603C189.871 9.65549 189.792 9.71495 189.718 9.76946C189.539 9.53657 189.262 9.32845 189.193 9.06583C188.712 7.24731 187.726 5.91438 185.828 5.39905C185.63 5.34454 185.427 5.29004 185.224 5.29004C182.528 5.28508 179.837 5.29004 177.062 5.29004V16.4787C179.56 17.0089 182.563 15.5372 182.914 12.8664C182.969 12.47 183.019 11.7168 183.881 12.1132V22.5636C183.787 22.6428 183.687 22.7271 183.593 22.8064L183.598 22.8014Z" fill="#1E1915"/>
<path id="Vector_5" d="M0.467224 28.5146C1.81501 25.591 2.99433 22.8211 4.35203 20.1355C5.99713 16.8849 7.98413 13.8573 10.4171 11.1023C15.2929 5.57239 21.4224 2.39616 28.5578 0.850164C32.2344 0.0573464 35.9359 -0.140858 39.6374 0.0969873C44.9245 0.433935 49.9638 1.83128 54.7207 4.24442C58.7047 6.2661 62.3219 8.76843 65.3098 12.0834C68.2432 15.334 70.6911 18.9314 72.351 23.0144C72.9803 24.5653 73.6344 26.1064 74.2488 27.6623C74.3678 27.9645 74.3678 28.3114 74.4322 28.7028H72.7821C71.801 26.2402 70.9587 23.7527 69.8338 21.3941C68.2532 18.0741 66.0382 15.1556 63.3625 12.6334C58.447 7.99544 52.6792 4.83407 46.0988 3.24348C42.3875 2.34661 38.5919 1.91551 34.7665 2.15336C27.7104 2.58941 21.249 4.79443 15.5357 8.9815C11.9185 11.6325 9.24273 15.1308 7.11698 19.0255C5.46198 22.0531 3.98535 25.1748 2.45422 28.2668C1.94385 29.2925 1.28977 28.4848 0.472179 28.5146H0.467224Z" fill="#1E1915"/>
<path id="Vector_6" d="M38.4135 14.9475C34.271 14.9674 30.3911 15.9187 26.6996 17.658C22.8544 19.4666 20.1142 22.4892 17.8597 25.9974C17.711 26.2254 17.6119 26.5128 17.4137 26.6812C17.1213 26.924 16.7596 27.0826 16.4326 27.2808C16.2839 26.8596 15.8925 26.3195 16.0312 26.0371C16.611 24.8578 17.2452 23.6784 18.0529 22.6478C20.3174 19.7639 23.1369 17.5093 26.4518 15.9138C28.969 14.7047 31.625 13.9268 34.4246 13.679C35.6584 13.5651 36.8922 13.2777 38.1211 13.2975C39.9149 13.3223 41.7284 13.4412 43.4974 13.7286C46.1038 14.1547 48.6111 14.9228 50.9895 16.1566C54.0964 17.767 56.5739 20.0414 58.6105 22.8361C59.1556 23.5793 59.6362 24.3722 60.1367 25.1452C60.5579 25.7943 60.6074 26.4285 59.9286 26.934C59.4281 27.3105 59.0416 27.4988 58.5263 26.7308C57.0992 24.5951 55.6969 22.405 53.9676 20.522C51.5296 17.8661 48.2543 16.5084 44.7659 15.8048C42.6749 15.3836 40.5343 15.2349 38.4135 14.9624V14.9475Z" fill="#1E1915"/>
<path id="Vector_7" d="M36.9616 23.4505C37.7941 22.2167 37.1152 21.1959 37.0905 20.1901C37.0706 19.3725 36.8526 18.5648 36.7882 17.7472C36.7386 17.1129 37.1301 16.553 37.7247 16.667C38.3292 16.7859 39.2558 16.7165 39.2905 17.8017C39.3599 19.7986 39.4788 21.7955 39.5829 23.9014C43.8889 20.3338 48.6458 19.4468 54.027 21.3892C53.9527 21.9987 53.8635 22.6973 53.7495 23.5992C52.6495 23.3019 51.6387 22.9104 50.5882 22.7717C45.6529 22.1225 41.7037 23.3118 39.3748 28.7178H37.2094C37.4918 25.1551 35.4751 22.9996 32.4872 21.9144C29.6033 20.8689 26.6352 20.9234 24.3261 23.6289C23.8801 21.6964 24.1477 20.9531 26.0257 20.4725C29.7668 19.5162 33.5277 19.2783 36.4166 22.6726C36.5949 22.8856 36.7337 23.1334 36.9567 23.4555L36.9616 23.4505Z" fill="#1E1915"/>
<path id="Vector_8" d="M45.311 31.899C43.1307 31.899 40.9307 31.8742 38.7306 31.9089C37.0657 31.9337 35.3958 32.0427 33.7309 32.1071C33.2552 32.1269 32.8291 32.1319 32.7746 31.453C32.725 30.8287 32.9579 30.457 33.5327 30.2836C33.7259 30.2242 33.9489 30.2341 34.157 30.2341C37.3085 30.2341 40.455 30.2242 43.6064 30.2341C44.8353 30.239 45.5587 30.7544 45.311 31.894V31.899Z" fill="#1E1915"/>
<path id="Vector_9" d="M16.8141 9.48204C18.1867 9.50186 19.0538 10.2699 19.3214 11.365C19.6435 12.683 19.9359 13.9912 20.9318 15.0615C21.1499 15.2993 20.8526 16.1467 20.6197 16.6323C20.3868 17.1179 20.0052 17.0535 19.5097 16.7264C18.3552 15.9633 17.825 14.9426 17.6218 13.6047C17.4583 12.5096 17.4633 11.2064 15.9222 10.8843C15.8132 10.8596 15.6695 10.1361 15.7934 10.0321C16.1601 9.72484 16.6556 9.56132 16.8141 9.48204Z" fill="#1E1915"/>
<path id="Vector_10" d="M11.4279 15.5669C12.8699 15.557 14.0888 16.6174 14.2771 17.7373C14.4258 18.6242 14.624 19.4716 15.5704 19.9175C16.0461 20.1405 16.5267 20.5518 15.9619 21.0919C15.5704 21.4685 14.9907 21.964 14.5447 21.9144C13.5091 21.8054 12.8946 20.9829 12.6419 20.0067C12.3248 18.8125 12.0027 17.762 10.5063 17.5093C9.69365 17.3755 9.59455 16.6818 10.2635 16.1467C10.6648 15.8246 11.2099 15.671 11.4329 15.5669H11.4279Z" fill="#1E1915"/>
<path id="Vector_11" d="M6.95346 21.1959C8.32107 19.4963 8.59856 19.4517 10.4518 20.4576C11.8838 21.2356 13.3406 21.9689 14.7825 22.7419C14.9163 22.8163 15.1145 23.0591 15.0848 23.1086C14.7825 23.6289 14.5001 24.1938 14.0789 24.6051C13.8658 24.8132 13.2762 24.8925 13.0136 24.7438C10.9919 23.6091 9.00488 22.4099 6.95842 21.2009L6.95346 21.1959Z" fill="#1E1915"/>
<path id="Vector_12" d="M25.9365 5.09181C27.7451 4.12556 28.4487 4.85396 28.5379 6.39996C28.5726 7.01935 28.4339 7.70811 28.1762 8.27795C27.6361 9.47213 27.2 10.6168 27.8739 11.9051C27.9879 12.1182 27.8888 12.4402 27.8888 12.9358C27.2645 12.9308 26.4816 13.1637 26.0703 12.8713C24.9901 12.1033 25.4608 10.8546 25.4905 9.7843C25.5004 9.43249 25.7383 9.08563 25.882 8.73877C26.3825 7.54955 26.7888 6.35536 25.9315 5.09181H25.9365Z" fill="#1E1915"/>
<path id="Vector_13" d="M38.8148 11.5384C36.9368 11.6127 36.8427 11.6127 36.808 9.83386C36.7684 7.93605 36.9121 6.02833 37.0062 4.13052C37.0508 3.2386 37.7594 3.43185 38.3292 3.40708C38.9486 3.37735 39.0923 3.70934 39.0874 4.2544C39.0725 6.27609 39.0923 8.29282 39.0675 10.3145C39.0675 10.7109 38.909 11.1024 38.8148 11.5434V11.5384Z" fill="#1E1915"/>
<path id="Vector_14" d="M20.2579 7.44549C21.0607 7.34639 21.8783 6.97476 22.3341 7.23738C23.7761 8.05993 24.4648 9.56628 24.0536 10.6911C23.6918 11.6672 23.6027 12.5195 24.3112 13.3768C24.4202 13.5105 24.336 14.0061 24.1824 14.125C23.6869 14.4966 23.1171 14.7691 22.572 15.0813C22.2598 14.4619 21.8882 13.8673 21.6652 13.2182C21.5364 12.8466 21.6008 12.3857 21.6503 11.9695C21.8452 10.3178 21.3811 8.8098 20.2579 7.44549Z" fill="#1E1915"/>
<path id="Vector_15" d="M58.4916 9.88837C58.8682 10.3096 59.2349 10.7208 59.6461 11.1817C59.1952 12.4502 58.11 12.906 56.8068 13.0299C56.46 13.0646 56.1082 13.0349 55.7613 13.0349C54.4499 13.0349 53.5844 13.6311 53.1648 14.8237C53.0905 14.8088 52.9964 14.8137 52.927 14.7791C52.2828 14.452 51.2224 14.5957 51.2918 13.4313C51.3513 12.47 52.4117 11.4641 53.4225 11.3749C53.7 11.3501 53.9824 11.36 54.2599 11.3749C55.5879 11.4195 56.9159 11.4839 57.8276 10.2204C57.9515 10.0519 58.2438 10.0073 58.4916 9.89332V9.88837Z" fill="#1E1915"/>
<path id="Vector_16" d="M54.4135 7.2473C54.9834 7.5892 55.4392 7.86173 55.9595 8.17391C55.4888 9.54152 54.5424 10.2947 53.1896 10.5078C51.9062 10.706 50.9053 11.1519 50.5436 12.5493C50.4891 12.7574 49.9539 13.02 49.7062 12.9655C49.1611 12.8515 48.6606 12.5493 48.1403 12.3213C48.5021 11.6078 48.6904 10.6861 49.2602 10.2352C49.9985 9.65053 51.0292 9.17484 51.9459 9.14511C53.2738 9.10547 53.8635 8.41671 54.4135 7.2473Z" fill="#1E1915"/>
<path id="Vector_17" d="M56.1825 17.2021C55.6474 16.885 55.1568 16.5728 54.6464 16.3003C54.027 15.9683 54.1311 15.5967 54.5176 15.1606C55.6275 13.9268 57.1388 13.5155 58.5808 13.9664C59.9484 14.3926 60.9394 14.2043 61.8759 13.3024C61.9701 13.3619 62.0048 13.3768 62.0246 13.4015C62.3566 13.8574 62.6886 14.3133 63.0206 14.7692C62.4259 15.0962 61.871 15.5422 61.2318 15.7156C60.6471 15.8791 59.9732 15.8196 59.3587 15.7354C57.5848 15.4926 57.3024 15.5967 56.1825 17.1972V17.2021Z" fill="#1E1915"/>
<path id="Vector_18" d="M42.5659 3.6152C42.8433 3.6152 43.1258 3.57061 43.3934 3.62511C43.77 3.69944 44.4339 3.80845 44.4538 3.96702C44.5231 4.51208 44.5677 5.39904 44.2605 5.59229C42.5708 6.66755 42.3082 8.17391 42.6996 9.87846C42.5659 9.98748 42.5114 10.0767 42.4668 10.0717C41.7631 9.95775 40.8811 10.5424 40.3856 9.67531C39.8554 8.7487 40.1924 7.15811 40.9009 6.30583C41.56 5.51301 42.1397 4.65578 42.7591 3.82827L42.5708 3.62511L42.5659 3.6152Z" fill="#1E1915"/>
<path id="Vector_19" d="M5.2935 24.0996C5.36783 23.2672 5.71469 22.623 6.53228 22.514C7.4688 22.3852 8.29135 22.7865 8.81163 23.5793C9.654 24.8627 10.5112 26.0767 12.3496 25.9578C12.3595 26.1164 12.3843 26.2799 12.3843 26.4384C12.3942 27.707 12.2852 27.8457 11.0167 27.6921C9.82743 27.5484 8.85623 27.2015 8.3409 25.8438C7.87512 24.615 6.63138 24.1294 5.2935 24.0996Z" fill="#1E1915"/>
<path id="Vector_20" d="M67.4009 20.6013C67.5148 21.186 67.6239 21.741 67.723 22.2563C65.8549 23.2077 64.0859 24.0798 62.3417 25.0114C61.6876 25.3582 61.2119 25.1947 60.9989 24.5951C60.7957 24.0303 60.3101 23.3118 61.3408 22.9005C63.1444 22.177 64.9283 21.3991 66.727 20.6558C66.9054 20.5815 67.1283 20.6211 67.4058 20.6063L67.4009 20.6013Z" fill="#1E1915"/>
<path id="Vector_21" d="M71.1618 26.2105C70.1262 27.0925 68.8626 27.0826 67.718 26.7457C66.2513 26.3146 64.9778 26.1312 63.9521 27.5781C63.3228 27.0727 62.7629 26.6218 62.2129 26.1808C62.8818 25.051 64.4972 24.3276 65.6765 24.6348C66.3355 24.8082 66.9648 25.1105 67.6288 25.2542C68.1144 25.3582 68.6793 25.4326 69.1302 25.2889C70.5474 24.8379 70.5375 24.7934 71.1569 26.2105H71.1618Z" fill="#1E1915"/>
<g id="Universidade Estadual do Norte Fluminense Darcy Ribeiro">
<path id="Vector_22" d="M185.042 41.7093C185.042 41.0169 185.235 40.504 185.62 40.1707C185.941 39.8937 186.333 39.7552 186.796 39.7552C187.31 39.7552 187.73 39.9242 188.056 40.2622C188.383 40.5979 188.546 41.0627 188.546 41.6565C188.546 42.1377 188.473 42.5168 188.328 42.7938C188.184 43.0684 187.974 43.2821 187.697 43.4346C187.423 43.5872 187.122 43.6635 186.796 43.6635C186.272 43.6635 185.849 43.4957 185.525 43.16C185.203 42.8243 185.042 42.3408 185.042 41.7093ZM185.694 41.7093C185.694 42.1882 185.798 42.5473 186.007 42.7868C186.216 43.0238 186.479 43.1424 186.796 43.1424C187.11 43.1424 187.372 43.0227 187.581 42.7832C187.79 42.5438 187.894 42.1788 187.894 41.6882C187.894 41.2258 187.789 40.876 187.578 40.639C187.369 40.3995 187.108 40.2798 186.796 40.2798C186.479 40.2798 186.216 40.3984 186.007 40.6354C185.798 40.8725 185.694 41.2305 185.694 41.7093Z" fill="#1E1915"/>
<path id="Vector_23" d="M182.87 43.579V39.8397H183.44V40.4066C183.586 40.1413 183.72 39.9664 183.842 39.8819C183.966 39.7974 184.102 39.7552 184.25 39.7552C184.464 39.7552 184.681 39.8233 184.902 39.9594L184.683 40.5474C184.528 40.4559 184.373 40.4101 184.219 40.4101C184.08 40.4101 183.956 40.4523 183.845 40.5368C183.735 40.619 183.656 40.734 183.609 40.8819C183.539 41.1072 183.504 41.3537 183.504 41.6213V43.579H182.87Z" fill="#1E1915"/>
<path id="Vector_24" d="M181.275 39.1461V38.4172H181.909V39.1461H181.275ZM181.275 43.579V39.8397H181.909V43.579H181.275Z" fill="#1E1915"/>
<path id="Vector_25" d="M179.817 42.3748L180.472 42.4558C180.369 42.8384 180.178 43.1353 179.898 43.3466C179.619 43.5579 179.262 43.6635 178.828 43.6635C178.281 43.6635 177.847 43.4957 177.525 43.16C177.206 42.822 177.046 42.349 177.046 41.741C177.046 41.1119 177.208 40.6237 177.532 40.2763C177.856 39.9289 178.276 39.7552 178.793 39.7552C179.293 39.7552 179.701 39.9254 180.018 40.2657C180.335 40.6061 180.493 41.085 180.493 41.7023C180.493 41.7399 180.492 41.7962 180.49 41.8713H177.701C177.725 42.2821 177.841 42.5966 178.05 42.8149C178.259 43.0332 178.519 43.1424 178.831 43.1424C179.064 43.1424 179.262 43.0814 179.426 42.9593C179.591 42.8372 179.721 42.6424 179.817 42.3748ZM177.736 41.3502H179.824C179.796 41.0357 179.716 40.7997 179.585 40.6425C179.383 40.3984 179.121 40.2763 178.8 40.2763C178.509 40.2763 178.263 40.3737 178.064 40.5685C177.867 40.7634 177.758 41.0239 177.736 41.3502Z" fill="#1E1915"/>
<path id="Vector_26" d="M173.828 43.579H173.24V38.4172H173.874V40.2587C174.141 39.923 174.483 39.7552 174.898 39.7552C175.128 39.7552 175.346 39.8021 175.55 39.896C175.756 39.9876 175.925 40.1178 176.057 40.2869C176.191 40.4535 176.295 40.6554 176.37 40.8925C176.445 41.1295 176.483 41.3831 176.483 41.653C176.483 42.2938 176.324 42.7891 176.008 43.1389C175.691 43.4886 175.31 43.6635 174.867 43.6635C174.425 43.6635 174.079 43.4792 173.828 43.1107V43.579ZM173.821 41.6812C173.821 42.1295 173.882 42.4534 174.004 42.653C174.204 42.9792 174.474 43.1424 174.814 43.1424C175.091 43.1424 175.33 43.0227 175.532 42.7832C175.734 42.5415 175.835 42.1823 175.835 41.7058C175.835 41.2176 175.738 40.8573 175.543 40.6249C175.35 40.3925 175.117 40.2763 174.842 40.2763C174.565 40.2763 174.326 40.3972 174.124 40.639C173.922 40.8784 173.821 41.2258 173.821 41.6812Z" fill="#1E1915"/>
<path id="Vector_27" d="M171.642 39.1461V38.4172H172.275V39.1461H171.642ZM171.642 43.579V39.8397H172.275V43.579H171.642Z" fill="#1E1915"/>
<path id="Vector_28" d="M166.518 43.579V38.4172H168.807C169.267 38.4172 169.617 38.4642 169.856 38.558C170.096 38.6496 170.287 38.8127 170.43 39.0475C170.573 39.2822 170.645 39.5416 170.645 39.8256C170.645 40.1918 170.527 40.5005 170.289 40.7516C170.052 41.0028 169.686 41.1624 169.191 41.2305C169.372 41.3173 169.509 41.403 169.603 41.4875C169.802 41.6706 169.991 41.8995 170.17 42.1741L171.068 43.579H170.208L169.525 42.5051C169.326 42.1952 169.162 41.9582 169.032 41.7938C168.903 41.6295 168.787 41.5145 168.684 41.4488C168.583 41.3831 168.48 41.3373 168.374 41.3115C168.297 41.295 168.17 41.2868 167.994 41.2868H167.202V43.579H166.518ZM167.202 40.6953H168.67C168.982 40.6953 169.226 40.6636 169.402 40.6002C169.578 40.5345 169.712 40.4312 169.804 40.2904C169.895 40.1472 169.941 39.9923 169.941 39.8256C169.941 39.5815 169.852 39.3808 169.673 39.2235C169.497 39.0662 169.218 38.9876 168.835 38.9876H167.202V40.6953Z" fill="#1E1915"/>
<path id="Vector_29" d="M160.786 45.0191L160.716 44.424C160.854 44.4616 160.975 44.4804 161.079 44.4804C161.219 44.4804 161.332 44.4569 161.417 44.4099C161.501 44.363 161.57 44.2973 161.624 44.2128C161.664 44.1494 161.729 43.9921 161.818 43.741C161.83 43.7057 161.848 43.6541 161.874 43.586L160.455 39.8397H161.138L161.917 42.0051C162.017 42.2797 162.108 42.5685 162.188 42.8713C162.26 42.5802 162.347 42.2962 162.448 42.0192L163.247 39.8397H163.881L162.459 43.6424C162.306 44.0531 162.188 44.336 162.103 44.4909C161.99 44.6998 161.861 44.8524 161.716 44.9487C161.57 45.0472 161.397 45.0965 161.195 45.0965C161.073 45.0965 160.937 45.0707 160.786 45.0191Z" fill="#1E1915"/>
<path id="Vector_30" d="M159.649 42.2093L160.272 42.2903C160.204 42.7199 160.029 43.0567 159.748 43.3008C159.468 43.5426 159.124 43.6635 158.716 43.6635C158.204 43.6635 157.792 43.4968 157.48 43.1635C157.17 42.8278 157.015 42.3478 157.015 41.7234C157.015 41.3197 157.082 40.9664 157.216 40.6636C157.35 40.3608 157.553 40.1343 157.825 39.9841C158.1 39.8315 158.398 39.7552 158.719 39.7552C159.126 39.7552 159.458 39.8585 159.716 40.065C159.974 40.2693 160.14 40.5603 160.212 40.9382L159.596 41.0333C159.538 40.7821 159.433 40.5932 159.283 40.4664C159.135 40.3397 158.955 40.2763 158.744 40.2763C158.425 40.2763 158.166 40.3913 157.966 40.6214C157.766 40.849 157.667 41.2105 157.667 41.7058C157.667 42.2081 157.763 42.5732 157.955 42.8008C158.148 43.0285 158.399 43.1424 158.709 43.1424C158.958 43.1424 159.165 43.0661 159.332 42.9135C159.499 42.7609 159.604 42.5262 159.649 42.2093Z" fill="#1E1915"/>
<path id="Vector_31" d="M154.801 43.579V39.8397H155.371V40.4066C155.517 40.1413 155.65 39.9664 155.772 39.8819C155.897 39.7974 156.033 39.7552 156.181 39.7552C156.394 39.7552 156.612 39.8233 156.832 39.9594L156.614 40.5474C156.459 40.4559 156.304 40.4101 156.149 40.4101C156.011 40.4101 155.886 40.4523 155.776 40.5368C155.666 40.619 155.587 40.734 155.54 40.8819C155.47 41.1072 155.434 41.3537 155.434 41.6213V43.579H154.801Z" fill="#1E1915"/>
<path id="Vector_32" d="M153.234 43.1177C152.999 43.3173 152.773 43.4581 152.554 43.5403C152.338 43.6224 152.106 43.6635 151.857 43.6635C151.446 43.6635 151.131 43.5637 150.91 43.3642C150.689 43.1623 150.579 42.9053 150.579 42.5931C150.579 42.41 150.62 42.2434 150.702 42.0931C150.787 41.9406 150.896 41.8185 151.03 41.7269C151.166 41.6354 151.318 41.5662 151.487 41.5192C151.612 41.4863 151.8 41.4547 152.051 41.4241C152.562 41.3631 152.939 41.2903 153.181 41.2058C153.183 41.119 153.184 41.0638 153.184 41.0404C153.184 40.7821 153.125 40.6002 153.005 40.4946C152.843 40.3514 152.602 40.2798 152.283 40.2798C151.985 40.2798 151.764 40.3326 151.621 40.4383C151.48 40.5415 151.376 40.7258 151.308 40.9911L150.688 40.9066C150.744 40.6413 150.837 40.4277 150.966 40.2657C151.095 40.1014 151.282 39.9758 151.526 39.889C151.77 39.7998 152.053 39.7552 152.375 39.7552C152.694 39.7552 152.953 39.7927 153.153 39.8679C153.352 39.943 153.499 40.038 153.593 40.1531C153.687 40.2657 153.753 40.4089 153.79 40.5826C153.811 40.6906 153.822 40.8854 153.822 41.1671V42.0121C153.822 42.6013 153.835 42.9746 153.86 43.1318C153.889 43.2867 153.943 43.4358 154.022 43.579H153.361C153.295 43.4475 153.253 43.2938 153.234 43.1177ZM153.181 41.7023C152.951 41.7962 152.606 41.876 152.146 41.9417C151.885 41.9793 151.701 42.0215 151.593 42.0685C151.485 42.1154 151.402 42.1847 151.343 42.2762C151.284 42.3654 151.255 42.4652 151.255 42.5755C151.255 42.7445 151.318 42.8854 151.445 42.998C151.574 43.1107 151.762 43.167 152.008 43.167C152.253 43.167 152.47 43.1142 152.66 43.0086C152.85 42.9006 152.99 42.7539 153.079 42.5685C153.147 42.4253 153.181 42.214 153.181 41.9347V41.7023Z" fill="#1E1915"/>
<path id="Vector_33" d="M145.664 43.579V38.4172H147.442C147.843 38.4172 148.149 38.4419 148.361 38.4911C148.656 38.5592 148.909 38.6825 149.118 38.8609C149.39 39.0909 149.593 39.3855 149.727 39.7446C149.863 40.1014 149.931 40.5099 149.931 40.9699C149.931 41.3619 149.885 41.7093 149.794 42.0121C149.702 42.3149 149.585 42.5661 149.442 42.7656C149.298 42.9628 149.141 43.1189 148.97 43.2339C148.801 43.3466 148.595 43.4323 148.354 43.491C148.114 43.5496 147.838 43.579 147.526 43.579H145.664ZM146.347 42.9699H147.449C147.789 42.9699 148.056 42.9382 148.248 42.8748C148.443 42.8114 148.598 42.7222 148.713 42.6072C148.875 42.4452 149 42.2281 149.09 41.9558C149.181 41.6812 149.227 41.349 149.227 40.9594C149.227 40.4195 149.138 40.0052 148.959 39.7165C148.783 39.4254 148.568 39.2306 148.315 39.132C148.132 39.0615 147.837 39.0263 147.431 39.0263H146.347V42.9699Z" fill="#1E1915"/>
<path id="Vector_34" d="M142.122 42.3748L142.776 42.4558C142.673 42.8384 142.482 43.1353 142.202 43.3466C141.923 43.5579 141.566 43.6635 141.132 43.6635C140.585 43.6635 140.151 43.4957 139.829 43.16C139.51 42.822 139.35 42.349 139.35 41.741C139.35 41.1119 139.512 40.6237 139.836 40.2763C140.16 39.9289 140.58 39.7552 141.097 39.7552C141.597 39.7552 142.005 39.9254 142.322 40.2657C142.639 40.6061 142.798 41.085 142.798 41.7023C142.798 41.7399 142.796 41.7962 142.794 41.8713H140.005C140.029 42.2821 140.145 42.5966 140.354 42.8149C140.563 43.0332 140.823 43.1424 141.136 43.1424C141.368 43.1424 141.566 43.0814 141.731 42.9593C141.895 42.8372 142.025 42.6424 142.122 42.3748ZM140.041 41.3502H142.129C142.1 41.0357 142.021 40.7997 141.889 40.6425C141.687 40.3984 141.426 40.2763 141.104 40.2763C140.813 40.2763 140.568 40.3737 140.368 40.5685C140.171 40.7634 140.062 41.0239 140.041 41.3502Z" fill="#1E1915"/>
<path id="Vector_35" d="M135.703 42.4628L136.329 42.3642C136.365 42.6154 136.462 42.8079 136.622 42.9417C136.784 43.0755 137.009 43.1424 137.298 43.1424C137.589 43.1424 137.805 43.0837 137.946 42.9663C138.086 42.8466 138.157 42.707 138.157 42.5473C138.157 42.4041 138.095 42.2915 137.97 42.2093C137.883 42.153 137.667 42.0814 137.322 41.9945C136.858 41.8772 136.535 41.7762 136.354 41.6917C136.176 41.6049 136.04 41.4863 135.946 41.3361C135.854 41.1835 135.808 41.0157 135.808 40.8326C135.808 40.666 135.846 40.5122 135.921 40.3714C135.999 40.2282 136.103 40.1096 136.234 40.0157C136.333 39.943 136.467 39.8819 136.636 39.8326C136.807 39.781 136.99 39.7552 137.185 39.7552C137.478 39.7552 137.736 39.7974 137.956 39.8819C138.179 39.9664 138.343 40.0815 138.449 40.227C138.555 40.3702 138.628 40.5627 138.667 40.8044L138.048 40.8889C138.02 40.6965 137.937 40.5462 137.801 40.4383C137.667 40.3303 137.477 40.2763 137.231 40.2763C136.94 40.2763 136.732 40.3244 136.608 40.4207C136.483 40.5169 136.421 40.6296 136.421 40.7587C136.421 40.8408 136.447 40.9148 136.498 40.9805C136.55 41.0486 136.631 41.1049 136.741 41.1495C136.805 41.173 136.991 41.227 137.301 41.3115C137.75 41.4312 138.062 41.5298 138.238 41.6072C138.416 41.6823 138.556 41.7927 138.657 41.9382C138.758 42.0837 138.808 42.2645 138.808 42.4804C138.808 42.6917 138.746 42.8912 138.622 43.079C138.5 43.2644 138.322 43.4088 138.09 43.5121C137.858 43.613 137.595 43.6635 137.301 43.6635C136.815 43.6635 136.444 43.5626 136.189 43.3607C135.935 43.1588 135.773 42.8595 135.703 42.4628Z" fill="#1E1915"/>
<path id="Vector_36" d="M131.942 43.579V39.8397H132.513V40.3714C132.787 39.9606 133.184 39.7552 133.703 39.7552C133.928 39.7552 134.135 39.7963 134.323 39.8784C134.513 39.9582 134.655 40.0639 134.749 40.1953C134.842 40.3268 134.908 40.4829 134.946 40.6636C134.969 40.781 134.981 40.9864 134.981 41.2798V43.579H134.347V41.3044C134.347 41.0462 134.323 40.8537 134.273 40.727C134.224 40.5979 134.136 40.4958 134.009 40.4207C133.885 40.3432 133.738 40.3045 133.569 40.3045C133.299 40.3045 133.066 40.3901 132.868 40.5615C132.674 40.7329 132.576 41.058 132.576 41.5368V43.579H131.942Z" fill="#1E1915"/>
<path id="Vector_37" d="M130.488 42.3748L131.143 42.4558C131.04 42.8384 130.848 43.1353 130.569 43.3466C130.29 43.5579 129.933 43.6635 129.499 43.6635C128.952 43.6635 128.518 43.4957 128.196 43.16C127.877 42.822 127.717 42.349 127.717 41.741C127.717 41.1119 127.879 40.6237 128.203 40.2763C128.527 39.9289 128.947 39.7552 129.464 39.7552C129.964 39.7552 130.372 39.9254 130.689 40.2657C131.006 40.6061 131.164 41.085 131.164 41.7023C131.164 41.7399 131.163 41.7962 131.161 41.8713H128.372C128.395 42.2821 128.512 42.5966 128.721 42.8149C128.93 43.0332 129.19 43.1424 129.502 43.1424C129.735 43.1424 129.933 43.0814 130.097 42.9593C130.262 42.8372 130.392 42.6424 130.488 42.3748ZM128.407 41.3502H130.495C130.467 41.0357 130.387 40.7997 130.256 40.6425C130.054 40.3984 129.792 40.2763 129.471 40.2763C129.18 40.2763 128.934 40.3737 128.735 40.5685C128.538 40.7634 128.428 41.0239 128.407 41.3502Z" fill="#1E1915"/>
<path id="Vector_38" d="M123.914 43.579V39.8397H124.485V40.3714C124.759 39.9606 125.156 39.7552 125.675 39.7552C125.9 39.7552 126.107 39.7963 126.295 39.8784C126.485 39.9582 126.627 40.0639 126.721 40.1953C126.815 40.3268 126.88 40.4829 126.918 40.6636C126.941 40.781 126.953 40.9864 126.953 41.2798V43.579H126.319V41.3044C126.319 41.0462 126.295 40.8537 126.245 40.727C126.196 40.5979 126.108 40.4958 125.981 40.4207C125.857 40.3432 125.71 40.3045 125.541 40.3045C125.271 40.3045 125.038 40.3901 124.84 40.5615C124.646 40.7329 124.548 41.058 124.548 41.5368V43.579H123.914Z" fill="#1E1915"/>
<path id="Vector_39" d="M122.312 39.1461V38.4172H122.946V39.1461H122.312ZM122.312 43.579V39.8397H122.946V43.579H122.312Z" fill="#1E1915"/>
<path id="Vector_40" d="M116.302 43.579V39.8397H116.869V40.3643C116.986 40.1812 117.142 40.0345 117.337 39.9242C117.532 39.8115 117.754 39.7552 118.003 39.7552C118.28 39.7552 118.506 39.8127 118.682 39.9277C118.861 40.0427 118.986 40.2035 119.059 40.4101C119.355 39.9735 119.74 39.7552 120.214 39.7552C120.585 39.7552 120.87 39.8585 121.069 40.065C121.269 40.2693 121.369 40.585 121.369 41.0122V43.579H120.739V41.2234C120.739 40.9699 120.717 40.788 120.675 40.6777C120.635 40.565 120.561 40.4746 120.453 40.4066C120.345 40.3385 120.219 40.3045 120.073 40.3045C119.81 40.3045 119.592 40.3925 119.418 40.5685C119.244 40.7422 119.158 41.0216 119.158 41.4065V43.579H118.524V41.1495C118.524 40.8678 118.472 40.6566 118.369 40.5157C118.266 40.3749 118.097 40.3045 117.862 40.3045C117.683 40.3045 117.518 40.3514 117.365 40.4453C117.215 40.5392 117.106 40.6765 117.038 40.8573C116.97 41.038 116.936 41.2986 116.936 41.6389V43.579H116.302Z" fill="#1E1915"/>
<path id="Vector_41" d="M114.739 43.579V43.0297C114.448 43.4522 114.052 43.6635 113.552 43.6635C113.332 43.6635 113.125 43.6212 112.932 43.5367C112.742 43.4522 112.6 43.3466 112.506 43.2198C112.415 43.0907 112.35 42.9335 112.313 42.748C112.287 42.6236 112.274 42.4264 112.274 42.1565V39.8397H112.908V41.9136C112.908 42.2445 112.921 42.4675 112.947 42.5825C112.986 42.7492 113.071 42.8807 113.2 42.9769C113.329 43.0708 113.489 43.1177 113.679 43.1177C113.869 43.1177 114.047 43.0696 114.214 42.9734C114.381 42.8748 114.498 42.7422 114.566 42.5755C114.637 42.4065 114.672 42.1624 114.672 41.8431V39.8397H115.306V43.579H114.739Z" fill="#1E1915"/>
<path id="Vector_42" d="M110.668 43.579V38.4172H111.302V43.579H110.668Z" fill="#1E1915"/>
<path id="Vector_43" d="M106.39 43.579V38.4172H109.873V39.0263H107.074V40.6249H109.496V41.234H107.074V43.579H106.39Z" fill="#1E1915"/>
<path id="Vector_44" d="M102.813 42.3748L103.468 42.4558C103.365 42.8384 103.173 43.1353 102.894 43.3466C102.615 43.5579 102.258 43.6635 101.824 43.6635C101.277 43.6635 100.843 43.4957 100.521 43.16C100.202 42.822 100.042 42.349 100.042 41.741C100.042 41.1119 100.204 40.6237 100.528 40.2763C100.852 39.9289 101.272 39.7552 101.789 39.7552C102.289 39.7552 102.697 39.9254 103.014 40.2657C103.331 40.6061 103.489 41.085 103.489 41.7023C103.489 41.7399 103.488 41.7962 103.486 41.8713H100.697C100.72 42.2821 100.837 42.5966 101.046 42.8149C101.254 43.0332 101.515 43.1424 101.827 43.1424C102.06 43.1424 102.258 43.0814 102.422 42.9593C102.587 42.8372 102.717 42.6424 102.813 42.3748ZM100.732 41.3502H102.82C102.792 41.0357 102.712 40.7997 102.581 40.6425C102.379 40.3984 102.117 40.2763 101.796 40.2763C101.504 40.2763 101.259 40.3737 101.06 40.5685C100.862 40.7634 100.753 41.0239 100.732 41.3502Z" fill="#1E1915"/>
<path id="Vector_45" d="M99.6301 43.0121L99.7217 43.5719C99.5433 43.6095 99.3837 43.6283 99.2428 43.6283C99.0128 43.6283 98.8344 43.5919 98.7076 43.5191C98.5809 43.4464 98.4917 43.3513 98.4401 43.2339C98.3884 43.1142 98.3626 42.8642 98.3626 42.484V40.3326H97.8978V39.8397H98.3626V38.9137L98.9929 38.5334V39.8397H99.6301V40.3326H98.9929V42.5192C98.9929 42.6999 99.0034 42.8161 99.0245 42.8677C99.048 42.9194 99.0844 42.9605 99.1337 42.991C99.1853 43.0215 99.2581 43.0368 99.352 43.0368C99.4224 43.0368 99.5151 43.0285 99.6301 43.0121Z" fill="#1E1915"/>
<path id="Vector_46" d="M95.838 43.579V39.8397H96.4084V40.4066C96.554 40.1413 96.6878 39.9664 96.8098 39.8819C96.9342 39.7974 97.0704 39.7552 97.2183 39.7552C97.4319 39.7552 97.649 39.8233 97.8697 39.9594L97.6513 40.5474C97.4964 40.4559 97.3415 40.4101 97.1866 40.4101C97.0481 40.4101 96.9237 40.4523 96.8134 40.5368C96.703 40.619 96.6244 40.734 96.5774 40.8819C96.507 41.1072 96.4718 41.3537 96.4718 41.6213V43.579H95.838Z" fill="#1E1915"/>
<path id="Vector_47" d="M91.5952 41.7093C91.5952 41.0169 91.7877 40.504 92.1727 40.1707C92.4943 39.8937 92.8863 39.7552 93.3487 39.7552C93.8628 39.7552 94.2829 39.9242 94.6092 40.2622C94.9355 40.5979 95.0986 41.0627 95.0986 41.6565C95.0986 42.1377 95.0259 42.5168 94.8803 42.7938C94.7371 43.0684 94.5271 43.2821 94.2501 43.4346C93.9754 43.5872 93.675 43.6635 93.3487 43.6635C92.8252 43.6635 92.4015 43.4957 92.0776 43.16C91.756 42.8243 91.5952 42.3408 91.5952 41.7093ZM92.2466 41.7093C92.2466 42.1882 92.3511 42.5473 92.56 42.7868C92.7689 43.0238 93.0318 43.1424 93.3487 43.1424C93.6632 43.1424 93.925 43.0227 94.1339 42.7832C94.3428 42.5438 94.4472 42.1788 94.4472 41.6882C94.4472 41.2258 94.3416 40.876 94.1304 40.639C93.9214 40.3995 93.6609 40.2798 93.3487 40.2798C93.0318 40.2798 92.7689 40.3984 92.56 40.6354C92.3511 40.8725 92.2466 41.2305 92.2466 41.7093Z" fill="#1E1915"/>
<path id="Vector_48" d="M86.694 43.579V38.4172H87.3947L90.1059 42.4699V38.4172H90.7608V43.579H90.0601L87.3489 39.5228V43.579H86.694Z" fill="#1E1915"/>
<path id="Vector_49" d="M80.3633 41.7093C80.3633 41.0169 80.5557 40.504 80.9407 40.1707C81.2623 39.8937 81.6543 39.7552 82.1167 39.7552C82.6308 39.7552 83.051 39.9242 83.3772 40.2622C83.7035 40.5979 83.8667 41.0627 83.8667 41.6565C83.8667 42.1377 83.7939 42.5168 83.6484 42.7938C83.5052 43.0684 83.2951 43.2821 83.0181 43.4346C82.7435 43.5872 82.443 43.6635 82.1167 43.6635C81.5933 43.6635 81.1696 43.4957 80.8456 43.16C80.5241 42.8243 80.3633 42.3408 80.3633 41.7093ZM81.0146 41.7093C81.0146 42.1882 81.1191 42.5473 81.328 42.7868C81.5369 43.0238 81.7998 43.1424 82.1167 43.1424C82.4313 43.1424 82.693 43.0227 82.9019 42.7832C83.1108 42.5438 83.2153 42.1788 83.2153 41.6882C83.2153 41.2258 83.1096 40.876 82.8984 40.639C82.6895 40.3995 82.4289 40.2798 82.1167 40.2798C81.7998 40.2798 81.5369 40.3984 81.328 40.6354C81.1191 40.8725 81.0146 41.2305 81.0146 41.7093Z" fill="#1E1915"/>
<path id="Vector_50" d="M79.0112 43.579V43.1072C78.7741 43.478 78.4255 43.6635 77.9655 43.6635C77.6674 43.6635 77.3927 43.5813 77.1416 43.417C76.8927 43.2527 76.6991 43.0238 76.5606 42.7304C76.4244 42.4347 76.3564 42.0955 76.3564 41.7129C76.3564 41.3396 76.4186 41.0016 76.543 40.6988C76.6674 40.3937 76.854 40.1601 77.1028 39.9981C77.3516 39.8362 77.6298 39.7552 77.9373 39.7552C78.1626 39.7552 78.3633 39.8033 78.5394 39.8995C78.7154 39.9934 78.8586 40.1167 78.969 40.2692V38.4172H79.5992V43.579H79.0112ZM77.0078 41.7129C77.0078 42.1917 77.1087 42.5497 77.3106 42.7868C77.5124 43.0238 77.7507 43.1424 78.0253 43.1424C78.3023 43.1424 78.537 43.0297 78.7295 42.8044C78.9244 42.5767 79.0218 42.2304 79.0218 41.7657C79.0218 41.254 78.9232 40.8784 78.726 40.639C78.5288 40.3995 78.2859 40.2798 77.9972 40.2798C77.7155 40.2798 77.4796 40.3948 77.2894 40.6249C77.1017 40.8549 77.0078 41.2176 77.0078 41.7129Z" fill="#1E1915"/>
<path id="Vector_51" d="M72.9586 43.579V38.4172H73.5924V43.579H72.9586Z" fill="#1E1915"/>
<path id="Vector_52" d="M71.3988 43.1177C71.1641 43.3173 70.9376 43.4581 70.7193 43.5403C70.5033 43.6224 70.2709 43.6635 70.0221 43.6635C69.6113 43.6635 69.2956 43.5637 69.075 43.3642C68.8543 43.1623 68.744 42.9053 68.744 42.5931C68.744 42.41 68.7851 42.2434 68.8672 42.0931C68.9517 41.9406 69.0609 41.8185 69.1947 41.7269C69.3308 41.6354 69.4834 41.5662 69.6524 41.5192C69.7768 41.4863 69.9646 41.4547 70.2158 41.4241C70.7275 41.3631 71.1042 41.2903 71.346 41.2058C71.3484 41.119 71.3495 41.0638 71.3495 41.0404C71.3495 40.7821 71.2897 40.6002 71.17 40.4946C71.008 40.3514 70.7674 40.2798 70.4482 40.2798C70.15 40.2798 69.9294 40.3326 69.7862 40.4383C69.6454 40.5415 69.5409 40.7258 69.4728 40.9911L68.8531 40.9066C68.9095 40.6413 69.0022 40.4277 69.1313 40.2657C69.2604 40.1014 69.447 39.9758 69.6911 39.889C69.9353 39.7998 70.2181 39.7552 70.5397 39.7552C70.8589 39.7552 71.1183 39.7927 71.3178 39.8679C71.5174 39.943 71.6641 40.038 71.758 40.1531C71.8519 40.2657 71.9176 40.4089 71.9551 40.5826C71.9763 40.6906 71.9868 40.8854 71.9868 41.1671V42.0121C71.9868 42.6013 71.9997 42.9746 72.0256 43.1318C72.0537 43.2867 72.1077 43.4358 72.1875 43.579H71.5256C71.4598 43.4475 71.4176 43.2938 71.3988 43.1177ZM71.346 41.7023C71.116 41.7962 70.7709 41.876 70.3108 41.9417C70.0503 41.9793 69.866 42.0215 69.758 42.0685C69.6501 42.1154 69.5667 42.1847 69.508 42.2762C69.4494 42.3654 69.42 42.4652 69.42 42.5755C69.42 42.7445 69.4834 42.8854 69.6102 42.998C69.7393 43.1107 69.927 43.167 70.1735 43.167C70.4176 43.167 70.6348 43.1142 70.8249 43.0086C71.015 42.9006 71.1547 42.7539 71.2439 42.5685C71.312 42.4253 71.346 42.214 71.346 41.9347V41.7023Z" fill="#1E1915"/>
<path id="Vector_53" d="M67.3954 43.579V43.0297C67.1044 43.4522 66.7089 43.6635 66.2089 43.6635C65.9882 43.6635 65.7817 43.6212 65.5892 43.5367C65.399 43.4522 65.257 43.3466 65.1631 43.2198C65.0716 43.0907 65.007 42.9335 64.9695 42.748C64.9437 42.6236 64.9307 42.4264 64.9307 42.1565V39.8397H65.5645V41.9136C65.5645 42.2445 65.5774 42.4675 65.6033 42.5825C65.6432 42.7492 65.7277 42.8807 65.8568 42.9769C65.9859 43.0708 66.1455 43.1177 66.3356 43.1177C66.5258 43.1177 66.7042 43.0696 66.8708 42.9734C67.0375 42.8748 67.1548 42.7422 67.2229 42.5755C67.2933 42.4065 67.3286 42.1624 67.3286 41.8431V39.8397H67.9623V43.579H67.3954Z" fill="#1E1915"/>
<path id="Vector_54" d="M63.3569 43.579V43.1072C63.1198 43.478 62.7712 43.6635 62.3111 43.6635C62.013 43.6635 61.7384 43.5813 61.4872 43.417C61.2384 43.2527 61.0447 43.0238 60.9062 42.7304C60.7701 42.4347 60.702 42.0955 60.702 41.7129C60.702 41.3396 60.7642 41.0016 60.8886 40.6988C61.0131 40.3937 61.1997 40.1601 61.4485 39.9981C61.6973 39.8362 61.9755 39.7552 62.283 39.7552C62.5083 39.7552 62.709 39.8033 62.885 39.8995C63.0611 39.9934 63.2043 40.1167 63.3146 40.2692V38.4172H63.9449V43.579H63.3569ZM61.3534 41.7129C61.3534 42.1917 61.4544 42.5497 61.6562 42.7868C61.8581 43.0238 62.0963 43.1424 62.371 43.1424C62.648 43.1424 62.8827 43.0297 63.0752 42.8044C63.27 42.5767 63.3674 42.2304 63.3674 41.7657C63.3674 41.254 63.2688 40.8784 63.0717 40.639C62.8745 40.3995 62.6315 40.2798 62.3428 40.2798C62.0611 40.2798 61.8252 40.3948 61.6351 40.6249C61.4473 40.8549 61.3534 41.2176 61.3534 41.7129Z" fill="#1E1915"/>
<path id="Vector_55" d="M59.357 43.1177C59.1223 43.3173 58.8958 43.4581 58.6775 43.5403C58.4615 43.6224 58.2291 43.6635 57.9803 43.6635C57.5695 43.6635 57.2538 43.5637 57.0332 43.3642C56.8125 43.1623 56.7022 42.9053 56.7022 42.5931C56.7022 42.41 56.7433 42.2434 56.8254 42.0931C56.9099 41.9406 57.0191 41.8185 57.1529 41.7269C57.289 41.6354 57.4416 41.5662 57.6106 41.5192C57.735 41.4863 57.9228 41.4547 58.174 41.4241C58.6857 41.3631 59.0624 41.2903 59.3042 41.2058C59.3065 41.119 59.3077 41.0638 59.3077 41.0404C59.3077 40.7821 59.2479 40.6002 59.1282 40.4946C58.9662 40.3514 58.7256 40.2798 58.4063 40.2798C58.1082 40.2798 57.8876 40.3326 57.7444 40.4383C57.6036 40.5415 57.4991 40.7258 57.431 40.9911L56.8113 40.9066C56.8677 40.6413 56.9604 40.4277 57.0895 40.2657C57.2186 40.1014 57.4052 39.9758 57.6493 39.889C57.8935 39.7998 58.1763 39.7552 58.4979 39.7552C58.8171 39.7552 59.0765 39.7927 59.276 39.8679C59.4756 39.943 59.6223 40.038 59.7162 40.1531C59.81 40.2657 59.8758 40.4089 59.9133 40.5826C59.9345 40.6906 59.945 40.8854 59.945 41.1671V42.0121C59.945 42.6013 59.9579 42.9746 59.9838 43.1318C60.0119 43.2867 60.0659 43.4358 60.1457 43.579H59.4838C59.418 43.4475 59.3758 43.2938 59.357 43.1177ZM59.3042 41.7023C59.0742 41.7962 58.7291 41.876 58.269 41.9417C58.0085 41.9793 57.8242 42.0215 57.7162 42.0685C57.6083 42.1154 57.5249 42.1847 57.4662 42.2762C57.4076 42.3654 57.3782 42.4652 57.3782 42.5755C57.3782 42.7445 57.4416 42.8854 57.5683 42.998C57.6975 43.1107 57.8852 43.167 58.1317 43.167C58.3758 43.167 58.593 43.1142 58.7831 43.0086C58.9732 42.9006 59.1129 42.7539 59.2021 42.5685C59.2702 42.4253 59.3042 42.214 59.3042 41.9347V41.7023Z" fill="#1E1915"/>
<path id="Vector_56" d="M56.2937 43.0121L56.3853 43.5719C56.2069 43.6095 56.0473 43.6283 55.9064 43.6283C55.6764 43.6283 55.498 43.5919 55.3712 43.5191C55.2445 43.4464 55.1553 43.3513 55.1036 43.2339C55.052 43.1142 55.0262 42.8642 55.0262 42.484V40.3326H54.5614V39.8397H55.0262V38.9137L55.6564 38.5334V39.8397H56.2937V40.3326H55.6564V42.5192C55.6564 42.6999 55.667 42.8161 55.6881 42.8677C55.7116 42.9194 55.748 42.9605 55.7973 42.991C55.8489 43.0215 55.9217 43.0368 56.0156 43.0368C56.086 43.0368 56.1787 43.0285 56.2937 43.0121Z" fill="#1E1915"/>
<path id="Vector_57" d="M51.051 42.4628L51.6777 42.3642C51.7129 42.6154 51.8103 42.8079 51.97 42.9417C52.1319 43.0755 52.3573 43.1424 52.646 43.1424C52.9371 43.1424 53.153 43.0837 53.2939 42.9663C53.4347 42.8466 53.5051 42.707 53.5051 42.5473C53.5051 42.4041 53.4429 42.2915 53.3185 42.2093C53.2317 42.153 53.0157 42.0814 52.6706 41.9945C52.2059 41.8772 51.8831 41.7762 51.7024 41.6917C51.524 41.6049 51.3878 41.4863 51.2939 41.3361C51.2024 41.1835 51.1566 41.0157 51.1566 40.8326C51.1566 40.666 51.1942 40.5122 51.2693 40.3714C51.3468 40.2282 51.4512 40.1096 51.5827 40.0157C51.6812 39.943 51.815 39.8819 51.9841 39.8326C52.1554 39.781 52.3385 39.7552 52.5333 39.7552C52.8267 39.7552 53.0838 39.7974 53.3044 39.8819C53.5274 39.9664 53.6917 40.0815 53.7974 40.227C53.903 40.3702 53.9758 40.5627 54.0157 40.8044L53.396 40.8889C53.3678 40.6965 53.2856 40.5462 53.1495 40.4383C53.0157 40.3303 52.8256 40.2763 52.5791 40.2763C52.288 40.2763 52.0803 40.3244 51.9559 40.4207C51.8315 40.5169 51.7693 40.6296 51.7693 40.7587C51.7693 40.8408 51.7951 40.9148 51.8467 40.9805C51.8984 41.0486 51.9794 41.1049 52.0897 41.1495C52.1531 41.173 52.3397 41.227 52.6495 41.3115C53.0979 41.4312 53.4101 41.5298 53.5861 41.6072C53.7645 41.6823 53.9042 41.7927 54.0051 41.9382C54.106 42.0837 54.1565 42.2645 54.1565 42.4804C54.1565 42.6917 54.0943 42.8912 53.9699 43.079C53.8478 43.2644 53.6706 43.4088 53.4382 43.5121C53.2058 43.613 52.9429 43.6635 52.6495 43.6635C52.1636 43.6635 51.7927 43.5626 51.5369 43.3607C51.2834 43.1588 51.1214 42.8595 51.051 42.4628Z" fill="#1E1915"/>
<path id="Vector_58" d="M46.5899 43.579V38.4172H50.3221V39.0263H47.273V40.6073H50.1285V41.2129H47.273V42.9699H50.4419V43.579H46.5899Z" fill="#1E1915"/>
<path id="Vector_59" d="M43.0337 42.3748L43.6886 42.4558C43.5853 42.8384 43.394 43.1353 43.1147 43.3466C42.8353 43.5579 42.4785 43.6635 42.0443 43.6635C41.4974 43.6635 41.0631 43.4957 40.7415 43.16C40.4223 42.822 40.2627 42.349 40.2627 41.741C40.2627 41.1119 40.4246 40.6237 40.7486 40.2763C41.0725 39.9289 41.4927 39.7552 42.0091 39.7552C42.5091 39.7552 42.9175 39.9254 43.2344 40.2657C43.5513 40.6061 43.7097 41.085 43.7097 41.7023C43.7097 41.7399 43.7085 41.7962 43.7062 41.8713H40.9176C40.941 42.2821 41.0572 42.5966 41.2661 42.8149C41.4751 43.0332 41.7356 43.1424 42.0478 43.1424C42.2802 43.1424 42.4785 43.0814 42.6429 42.9593C42.8072 42.8372 42.9374 42.6424 43.0337 42.3748ZM40.9528 41.3502H43.0407C43.0126 41.0357 42.9328 40.7997 42.8013 40.6425C42.5994 40.3984 42.3377 40.2763 42.0161 40.2763C41.725 40.2763 41.4798 40.3737 41.2802 40.5685C41.0831 40.7634 40.9739 41.0239 40.9528 41.3502Z" fill="#1E1915"/>
<path id="Vector_60" d="M38.886 43.579V43.1072C38.6489 43.478 38.3003 43.6635 37.8402 43.6635C37.5421 43.6635 37.2675 43.5813 37.0163 43.417C36.7675 43.2527 36.5738 43.0238 36.4353 42.7304C36.2992 42.4347 36.2311 42.0955 36.2311 41.7129C36.2311 41.3396 36.2933 41.0016 36.4177 40.6988C36.5421 40.3937 36.7288 40.1601 36.9776 39.9981C37.2264 39.8362 37.5045 39.7552 37.812 39.7552C38.0374 39.7552 38.2381 39.8033 38.4141 39.8995C38.5902 39.9934 38.7334 40.1167 38.8437 40.2692V38.4172H39.474V43.579H38.886ZM36.8825 41.7129C36.8825 42.1917 36.9834 42.5497 37.1853 42.7868C37.3872 43.0238 37.6254 43.1424 37.9001 43.1424C38.1771 43.1424 38.4118 43.0297 38.6043 42.8044C38.7991 42.5767 38.8965 42.2304 38.8965 41.7657C38.8965 41.254 38.7979 40.8784 38.6008 40.639C38.4036 40.3995 38.1606 40.2798 37.8719 40.2798C37.5902 40.2798 37.3543 40.3948 37.1642 40.6249C36.9764 40.8549 36.8825 41.2176 36.8825 41.7129Z" fill="#1E1915"/>
<path id="Vector_61" d="M34.8861 43.1177C34.6514 43.3173 34.4249 43.4581 34.2066 43.5403C33.9906 43.6224 33.7582 43.6635 33.5094 43.6635C33.0986 43.6635 32.7829 43.5637 32.5622 43.3642C32.3416 43.1623 32.2313 42.9053 32.2313 42.5931C32.2313 42.41 32.2724 42.2434 32.3545 42.0931C32.439 41.9406 32.5482 41.8185 32.682 41.7269C32.8181 41.6354 32.9707 41.5662 33.1397 41.5192C33.2641 41.4863 33.4519 41.4547 33.703 41.4241C34.2148 41.3631 34.5915 41.2903 34.8333 41.2058C34.8356 41.119 34.8368 41.0638 34.8368 41.0404C34.8368 40.7821 34.777 40.6002 34.6572 40.4946C34.4953 40.3514 34.2547 40.2798 33.9354 40.2798C33.6373 40.2798 33.4167 40.3326 33.2735 40.4383C33.1326 40.5415 33.0282 40.7258 32.9601 40.9911L32.3404 40.9066C32.3968 40.6413 32.4895 40.4277 32.6186 40.2657C32.7477 40.1014 32.9343 39.9758 33.1784 39.889C33.4225 39.7998 33.7054 39.7552 34.027 39.7552C34.3462 39.7552 34.6056 39.7927 34.8051 39.8679C35.0046 39.943 35.1514 40.038 35.2452 40.1531C35.3391 40.2657 35.4049 40.4089 35.4424 40.5826C35.4635 40.6906 35.4741 40.8854 35.4741 41.1671V42.0121C35.4741 42.6013 35.487 42.9746 35.5128 43.1318C35.541 43.2867 35.595 43.4358 35.6748 43.579H35.0129C34.9471 43.4475 34.9049 43.2938 34.8861 43.1177ZM34.8333 41.7023C34.6033 41.7962 34.2582 41.876 33.7981 41.9417C33.5376 41.9793 33.3533 42.0215 33.2453 42.0685C33.1373 42.1154 33.054 42.1847 32.9953 42.2762C32.9366 42.3654 32.9073 42.4652 32.9073 42.5755C32.9073 42.7445 32.9707 42.8854 33.0974 42.998C33.2265 43.1107 33.4143 43.167 33.6608 43.167C33.9049 43.167 34.122 43.1142 34.3122 43.0086C34.5023 42.9006 34.642 42.7539 34.7312 42.5685C34.7993 42.4253 34.8333 42.214 34.8333 41.9347V41.7023Z" fill="#1E1915"/>
<path id="Vector_62" d="M30.8581 43.579V43.1072C30.621 43.478 30.2724 43.6635 29.8123 43.6635C29.5142 43.6635 29.2396 43.5813 28.9884 43.417C28.7396 43.2527 28.546 43.0238 28.4075 42.7304C28.2713 42.4347 28.2033 42.0955 28.2033 41.7129C28.2033 41.3396 28.2655 41.0016 28.3899 40.6988C28.5143 40.3937 28.7009 40.1601 28.9497 39.9981C29.1985 39.8362 29.4767 39.7552 29.7842 39.7552C30.0095 39.7552 30.2102 39.8033 30.3863 39.8995C30.5623 39.9934 30.7055 40.1167 30.8158 40.2692V38.4172H31.4461V43.579H30.8581ZM28.8546 41.7129C28.8546 42.1917 28.9556 42.5497 29.1574 42.7868C29.3593 43.0238 29.5976 43.1424 29.8722 43.1424C30.1492 43.1424 30.3839 43.0297 30.5764 42.8044C30.7712 42.5767 30.8686 42.2304 30.8686 41.7657C30.8686 41.254 30.7701 40.8784 30.5729 40.639C30.3757 40.3995 30.1328 40.2798 29.844 40.2798C29.5624 40.2798 29.3265 40.3948 29.1363 40.6249C28.9485 40.8549 28.8546 41.2176 28.8546 41.7129Z" fill="#1E1915"/>
<path id="Vector_63" d="M26.8301 39.1461V38.4172H27.4639V39.1461H26.8301ZM26.8301 43.579V39.8397H27.4639V43.579H26.8301Z" fill="#1E1915"/>
<path id="Vector_64" d="M22.9675 42.4628L23.5943 42.3642C23.6295 42.6154 23.7269 42.8079 23.8865 42.9417C24.0485 43.0755 24.2738 43.1424 24.5625 43.1424C24.8536 43.1424 25.0696 43.0837 25.2104 42.9663C25.3513 42.8466 25.4217 42.707 25.4217 42.5473C25.4217 42.4041 25.3595 42.2915 25.2351 42.2093C25.1482 42.153 24.9323 42.0814 24.5872 41.9945C24.1224 41.8772 23.7997 41.7762 23.6189 41.6917C23.4405 41.6049 23.3044 41.4863 23.2105 41.3361C23.1189 41.1835 23.0732 41.0157 23.0732 40.8326C23.0732 40.666 23.1107 40.5122 23.1858 40.3714C23.2633 40.2282 23.3678 40.1096 23.4992 40.0157C23.5978 39.943 23.7316 39.8819 23.9006 39.8326C24.072 39.781 24.255 39.7552 24.4499 39.7552C24.7433 39.7552 25.0003 39.7974 25.221 39.8819C25.444 39.9664 25.6083 40.0815 25.7139 40.227C25.8195 40.3702 25.8923 40.5627 25.9322 40.8044L25.3125 40.8889C25.2844 40.6965 25.2022 40.5462 25.066 40.4383C24.9323 40.3303 24.7421 40.2763 24.4956 40.2763C24.2046 40.2763 23.9968 40.3244 23.8724 40.4207C23.748 40.5169 23.6858 40.6296 23.6858 40.7587C23.6858 40.8408 23.7116 40.9148 23.7633 40.9805C23.8149 41.0486 23.8959 41.1049 24.0062 41.1495C24.0696 41.173 24.2562 41.227 24.5661 41.3115C25.0144 41.4312 25.3266 41.5298 25.5027 41.6072C25.6811 41.6823 25.8207 41.7927 25.9217 41.9382C26.0226 42.0837 26.0731 42.2645 26.0731 42.4804C26.0731 42.6917 26.0109 42.8912 25.8864 43.079C25.7644 43.2644 25.5872 43.4088 25.3548 43.5121C25.1224 43.613 24.8595 43.6635 24.5661 43.6635C24.0802 43.6635 23.7093 43.5626 23.4534 43.3607C23.1999 43.1588 23.038 42.8595 22.9675 42.4628Z" fill="#1E1915"/>
<path id="Vector_65" d="M20.8127 43.579V39.8397H21.3831V40.4066C21.5286 40.1413 21.6624 39.9664 21.7845 39.8819C21.9089 39.7974 22.045 39.7552 22.1929 39.7552C22.4065 39.7552 22.6237 39.8233 22.8443 39.9594L22.626 40.5474C22.4711 40.4559 22.3162 40.4101 22.1612 40.4101C22.0227 40.4101 21.8983 40.4523 21.788 40.5368C21.6777 40.619 21.599 40.734 21.5521 40.8819C21.4817 41.1072 21.4465 41.3537 21.4465 41.6213V43.579H20.8127Z" fill="#1E1915"/>
<path id="Vector_66" d="M19.3656 42.3748L20.0205 42.4558C19.9172 42.8384 19.7259 43.1353 19.4465 43.3466C19.1672 43.5579 18.8104 43.6635 18.3762 43.6635C17.8292 43.6635 17.395 43.4957 17.0734 43.16C16.7542 42.822 16.5945 42.349 16.5945 41.741C16.5945 41.1119 16.7565 40.6237 17.0804 40.2763C17.4044 39.9289 17.8245 39.7552 18.341 39.7552C18.8409 39.7552 19.2494 39.9254 19.5663 40.2657C19.8831 40.6061 20.0416 41.085 20.0416 41.7023C20.0416 41.7399 20.0404 41.7962 20.0381 41.8713H17.2494C17.2729 42.2821 17.3891 42.5966 17.598 42.8149C17.8069 43.0332 18.0675 43.1424 18.3797 43.1424C18.6121 43.1424 18.8104 43.0814 18.9747 42.9593C19.139 42.8372 19.2693 42.6424 19.3656 42.3748ZM17.2847 41.3502H19.3726C19.3444 41.0357 19.2646 40.7997 19.1332 40.6425C18.9313 40.3984 18.6696 40.2763 18.348 40.2763C18.0569 40.2763 17.8116 40.3737 17.6121 40.5685C17.4149 40.7634 17.3058 41.0239 17.2847 41.3502Z" fill="#1E1915"/>
<path id="Vector_67" d="M14.239 43.579L12.8165 39.8397H13.4855L14.2883 42.079C14.3751 42.3208 14.4549 42.572 14.5277 42.8325C14.5841 42.6354 14.6627 42.3983 14.7636 42.1213L15.5946 39.8397H16.246L14.8305 43.579H14.239Z" fill="#1E1915"/>
<path id="Vector_68" d="M11.5982 39.1461V38.4172H12.232V39.1461H11.5982ZM11.5982 43.579V39.8397H12.232V43.579H11.5982Z" fill="#1E1915"/>
<path id="Vector_69" d="M7.5808 43.579V39.8397H8.1512V40.3714C8.42583 39.9606 8.82253 39.7552 9.34129 39.7552C9.56664 39.7552 9.7732 39.7963 9.96099 39.8784C10.1511 39.9582 10.2931 40.0639 10.387 40.1953C10.4809 40.3268 10.5466 40.4829 10.5842 40.6636C10.6077 40.781 10.6194 40.9864 10.6194 41.2798V43.579H9.98563V41.3044C9.98563 41.0462 9.96099 40.8537 9.91169 40.727C9.8624 40.5979 9.77437 40.4958 9.64762 40.4207C9.52321 40.3432 9.3765 40.3045 9.20749 40.3045C8.93755 40.3045 8.70399 40.3901 8.50682 40.5615C8.31199 40.7329 8.21457 41.058 8.21457 41.5368V43.579H7.5808Z" fill="#1E1915"/>
<path id="Vector_70" d="M5.8379 38.4172H6.52097V41.3995C6.52097 41.9182 6.46229 42.3302 6.34492 42.6354C6.22756 42.9405 6.01512 43.1893 5.70762 43.3818C5.40247 43.5719 5.00108 43.667 4.50344 43.667C4.01989 43.667 3.62437 43.5837 3.31687 43.417C3.00937 43.2504 2.78989 43.0098 2.65844 42.6952C2.52699 42.3783 2.46127 41.9464 2.46127 41.3995V38.4172H3.14434V41.396C3.14434 41.8443 3.18542 42.1753 3.26757 42.3889C3.35208 42.6001 3.49526 42.7633 3.69713 42.8783C3.90135 42.9933 4.15017 43.0508 4.44359 43.0508C4.94591 43.0508 5.30388 42.937 5.51749 42.7093C5.7311 42.4816 5.8379 42.0438 5.8379 41.396V38.4172Z" fill="#1E1915"/>
</g>
</g>
</g>
</svg>
