<svg width="83" height="64" viewBox="0 0 83 64" fill="none" xmlns="http://www.w3.org/2000/svg">
<g id="logouenfvertical">
<g id="Group 5">
<path id="Vector" d="M77.8452 56.6681C77.6688 56.4624 77.3675 56.2676 77.3381 56.0434C77.1176 54.3164 75.4052 53.2911 73.9831 53.3132C73.6744 53.3169 73.3621 53.3132 72.9689 53.3132V63.367H64.7524C64.7083 63.3119 64.6642 63.2568 64.6165 63.2016C64.7708 63.0694 64.9031 62.8636 65.0795 62.8195C65.4726 62.7203 65.8842 62.7129 66.2884 62.6431C67.0785 62.5071 67.6444 61.8641 67.6444 61.052C67.6517 55.5878 67.6517 50.1273 67.6444 44.6631C67.6444 43.8253 66.9021 43.1087 66.0018 43.0573C65.5939 43.0352 65.1824 43.0536 64.7304 43.0536V42.3187H82.5524V46.8752C82.4973 46.9193 82.4385 46.9634 82.3833 47.0038C82.2511 46.8311 82.0453 46.6768 81.9938 46.482C81.6374 45.1334 80.9061 44.145 79.4987 43.7628C79.3518 43.7224 79.2011 43.682 79.0504 43.682C77.0514 43.6783 75.0561 43.682 72.9983 43.682V51.9793C74.8503 52.3725 77.0772 51.2811 77.3381 49.3005C77.3785 49.0065 77.4152 48.448 78.0546 48.7419V56.4917C77.9848 56.5505 77.9113 56.613 77.8415 56.6718L77.8452 56.6681Z" fill="white"/>
<path id="Vector_2" d="M61.2466 63.8263C60.1809 64.1056 60.0045 63.1832 59.604 62.7202C58.0202 60.8866 56.5247 58.9758 54.9923 57.098C53.8165 55.6539 52.6332 54.2098 51.4573 52.762C50.2043 51.2186 48.9549 49.6679 47.7055 48.1209C47.327 47.6505 46.9485 47.1802 46.4745 46.5922V63.356H42.1421C41.9033 62.7166 42.4839 62.6835 42.7962 62.6725C44.369 62.6247 45.2031 61.7134 45.2031 59.8687C45.2031 55.2828 45.2031 50.6968 45.2031 46.1145C45.2031 44.325 44.0419 43.1271 42.1421 43.0278C42.1201 42.8221 42.098 42.6053 42.0613 42.2856C42.414 42.2856 42.719 42.2856 43.0204 42.2856C45.0194 42.2856 47.022 42.3076 49.021 42.2709C49.5245 42.2598 49.8625 42.4362 50.1455 42.7963C52.8169 46.177 55.4847 49.5577 58.1599 52.9347C58.7111 53.6292 59.2917 54.2943 59.9825 55.1211V42.3407H64.0136V42.9764C63.8151 43.0315 63.6057 43.1271 63.3852 43.1491C61.6214 43.3292 61.2833 44.2478 61.2649 45.9345C61.2098 51.6081 61.2429 57.2818 61.2429 62.9554C61.2429 63.2384 61.2429 63.5213 61.2429 63.8263H61.2466Z" fill="white"/>
<path id="Vector_3" d="M35.9615 56.5432H35.3038C34.9106 54.173 33.3489 53.0523 30.8905 53.3867V62.1801H32.2391C33.6428 62.1801 35.0429 62.1654 36.4466 62.1801C38.6624 62.2058 40.0404 61.39 40.5365 59.1375C40.5732 58.9684 40.7974 58.8398 40.937 58.6892C40.9958 58.7333 41.0546 58.7774 41.1097 58.8215V63.356H22.674C22.6299 63.2972 22.5858 63.242 22.5417 63.1833C22.7145 63.0546 22.8688 62.8599 23.0599 62.8121C23.4788 62.7092 23.9234 62.7129 24.3423 62.6137C25.0074 62.4593 25.5586 61.6546 25.5586 60.8499C25.5623 55.5143 25.566 50.1824 25.5586 44.8468C25.5586 43.8106 24.8568 43.1197 23.7654 43.0499C23.409 43.0279 23.0488 43.0499 22.6446 43.0499V42.315H40.463V46.8899H39.8052C39.6766 44.777 38.1994 43.6048 36.1894 43.6599C34.4513 43.7077 32.7132 43.6709 30.9126 43.6709V51.9683C32.9924 52.3614 35.1531 51.1892 35.2854 48.6978H35.9652V56.5395L35.9615 56.5432Z" fill="white"/>
<path id="Vector_4" d="M17.4523 42.3077H21.759C21.7737 42.5355 21.7884 42.7486 21.8068 43.0095C21.3768 43.0426 20.9837 43.0169 20.6199 43.1051C19.4256 43.4027 18.8487 44.2332 18.8487 45.6112C18.845 49.0543 18.8818 52.5011 18.8266 55.9442C18.8083 57.054 18.6907 58.1968 18.393 59.2661C17.6802 61.8347 15.773 63.2127 13.2706 63.6941C11.301 64.0762 9.24319 64.1718 7.31033 63.5397C4.51025 62.6211 2.95588 61.0446 2.83094 58.0204C2.65088 53.6843 2.64721 49.3409 2.67661 45.0012C2.68396 43.9061 1.81306 42.9397 0.732719 43.0463C0.526939 43.0646 0.321158 43.0463 0.0712829 43.0463C0.0455604 42.9066 0.00881875 42.789 0.00146947 42.6714C-0.00587981 42.5722 0.0161651 42.4693 0.027189 42.3224H7.93869C7.93869 42.631 7.93869 42.9066 7.93869 43.1859C7.93869 48.0548 7.92767 52.9237 7.95339 57.7889C7.95339 58.4393 8.07832 59.1081 8.26573 59.7328C8.67729 61.1218 10.1692 62.1213 11.6354 62.1801C13.2706 62.2462 14.7331 61.9339 15.9053 60.6919C16.8717 59.6667 17.2539 58.3952 17.2833 57.0687C17.3862 52.3945 17.4082 47.7167 17.4597 43.0389C17.4597 42.8111 17.4597 42.5869 17.4597 42.2966L17.4523 42.3077Z" fill="white"/>
</g>
<g id="Group 6">
<path id="Vector_5" d="M0.424072 31.6798C1.92161 28.4314 3.23196 25.3538 4.74051 22.3697C6.56839 18.758 8.77617 15.394 11.4794 12.3329C16.897 6.18854 23.7075 2.65941 31.6357 0.94164C35.7209 0.0607341 39.8336 -0.159492 43.9464 0.104779C49.8209 0.479165 55.4202 2.03176 60.7056 4.71302C65.1321 6.95933 69.1513 9.73969 72.4712 13.423C75.7306 17.0347 78.4503 21.0318 80.2947 25.5685C80.994 27.2917 81.7207 29.004 82.4034 30.7328C82.5355 31.0686 82.5356 31.454 82.6071 31.889H80.7737C79.6836 29.1527 78.7477 26.3888 77.4979 23.7681C75.7416 20.0793 73.2805 16.8365 70.3075 14.0341C64.8458 8.88081 58.4373 5.36819 51.1257 3.60088C47.002 2.60435 42.7847 2.12536 38.5343 2.38963C30.6942 2.87413 23.5148 5.32415 17.1668 9.97644C13.1477 12.922 10.1746 16.809 7.81267 21.1364C5.97378 24.5004 4.33309 27.9689 2.63184 31.4045C2.06476 32.5442 1.33801 31.6467 0.429578 31.6798H0.424072Z" fill="white"/>
<path id="Vector_6" d="M42.5864 16.6053C37.9837 16.6273 33.6727 17.6844 29.571 19.6169C25.2986 21.6265 22.254 24.9849 19.7489 28.8829C19.5838 29.1362 19.4736 29.4555 19.2534 29.6427C18.9286 29.9125 18.5267 30.0887 18.1633 30.3089C17.9981 29.8409 17.5632 29.2408 17.7173 28.927C18.3615 27.6166 19.0662 26.3063 19.9636 25.1611C22.4797 21.9568 25.6125 19.4517 29.2957 17.6789C32.0926 16.3355 35.0437 15.4711 38.1544 15.1959C39.5253 15.0692 40.8962 14.7499 42.2616 14.7719C44.2546 14.7995 46.2697 14.9316 48.2352 15.2509C51.1312 15.7244 53.9171 16.5778 56.5598 17.9487C60.0118 19.738 62.7647 22.2651 65.0275 25.3703C65.6331 26.1962 66.1672 27.0771 66.7232 27.936C67.1912 28.6572 67.2463 29.3619 66.492 29.9235C65.9359 30.3419 65.5065 30.5512 64.9339 29.6978C63.3483 27.3248 61.7902 24.8913 59.8687 22.7992C57.1599 19.8482 53.5207 18.3396 49.6447 17.5578C47.3213 17.0898 44.9428 16.9246 42.5864 16.6218V16.6053Z" fill="white"/>
<path id="Vector_7" d="M40.9734 26.053C41.8984 24.6821 41.1441 23.548 41.1166 22.4303C41.0945 21.5219 40.8523 20.6245 40.7807 19.716C40.7257 19.0113 41.1606 18.3892 41.8213 18.5158C42.493 18.6479 43.5225 18.5708 43.5611 19.7766C43.6381 21.9954 43.7703 24.2141 43.8859 26.5541C48.6703 22.59 53.9558 21.6045 59.9349 23.7627C59.8523 24.4399 59.7532 25.2162 59.6266 26.2182C58.4043 25.8879 57.2812 25.4529 56.114 25.2988C50.6303 24.5775 46.2423 25.8989 43.6547 31.9056H41.2487C41.5625 27.947 39.3217 25.552 36.0018 24.3463C32.7975 23.1846 29.4996 23.2452 26.934 26.2512C26.4385 24.104 26.7358 23.2782 28.8224 22.7441C32.9792 21.6815 37.158 21.4173 40.3678 25.1887C40.566 25.4254 40.7201 25.7007 40.9679 26.0585L40.9734 26.053Z" fill="white"/>
<path id="Vector_8" d="M50.2505 35.4402C47.828 35.4402 45.3835 35.4127 42.939 35.4512C41.0891 35.4788 39.2337 35.5999 37.3838 35.6715C36.8552 35.6935 36.3817 35.699 36.3212 34.9447C36.2661 34.251 36.5249 33.8381 37.1635 33.6454C37.3783 33.5793 37.626 33.5903 37.8572 33.5903C41.3588 33.5903 44.8549 33.5793 48.3565 33.5903C49.722 33.5958 50.5258 34.1684 50.2505 35.4347V35.4402Z" fill="white"/>
<path id="Vector_9" d="M18.5874 10.5326C20.1125 10.5546 21.076 11.408 21.3733 12.6247C21.7311 14.0893 22.056 15.5427 23.1626 16.732C23.4049 16.9962 23.0745 17.9377 22.8158 18.4773C22.557 19.0168 22.133 18.9452 21.5825 18.5819C20.2997 17.734 19.7106 16.5998 19.4848 15.1133C19.3031 13.8966 19.3086 12.4486 17.5964 12.0907C17.4753 12.0632 17.3156 11.2593 17.4532 11.1437C17.8607 10.8024 18.4112 10.6207 18.5874 10.5326Z" fill="white"/>
<path id="Vector_10" d="M12.6028 17.2935C14.205 17.2825 15.5594 18.4607 15.7686 19.705C15.9338 20.6905 16.154 21.632 17.2056 22.1275C17.7341 22.3753 18.2682 22.8322 17.6405 23.4323C17.2056 23.8508 16.5614 24.4013 16.0659 24.3463C14.9152 24.2252 14.2325 23.3112 13.9517 22.2266C13.5994 20.8997 13.2415 19.7325 11.5788 19.4518C10.6758 19.3031 10.5657 18.5323 11.309 17.9377C11.755 17.5798 12.3606 17.4092 12.6083 17.2935H12.6028Z" fill="white"/>
<path id="Vector_11" d="M7.63135 23.548C9.15091 21.6595 9.45923 21.61 11.5183 22.7276C13.1095 23.592 14.7281 24.4069 16.3303 25.2657C16.479 25.3483 16.6992 25.6181 16.6661 25.6732C16.3303 26.2513 16.0165 26.8789 15.5485 27.3359C15.3117 27.5671 14.6566 27.6552 14.3648 27.49C12.1185 26.2292 9.91069 24.8969 7.63685 23.5535L7.63135 23.548Z" fill="white"/>
<path id="Vector_12" d="M28.7235 5.65455C30.733 4.58095 31.5149 5.39028 31.614 7.10805C31.6525 7.79626 31.4983 8.56155 31.212 9.1947C30.6119 10.5216 30.1274 11.7934 30.8762 13.2248C31.0028 13.4616 30.8927 13.8195 30.8927 14.37C30.199 14.3645 29.3291 14.6233 28.8721 14.2984C27.6719 13.4451 28.1949 12.0576 28.228 10.8684C28.239 10.4775 28.5033 10.0921 28.6629 9.70672C29.219 8.38536 29.6705 7.0585 28.718 5.65455H28.7235Z" fill="white"/>
<path id="Vector_13" d="M43.0325 12.8174C40.9458 12.9 40.8412 12.9 40.8027 10.9235C40.7586 8.81481 40.9183 6.69513 41.0229 4.58646C41.0725 3.59544 41.8598 3.81016 42.4929 3.78263C43.1811 3.7496 43.3408 4.11848 43.3353 4.7241C43.3188 6.97041 43.3408 9.21122 43.3133 11.4575C43.3133 11.898 43.1371 12.3329 43.0325 12.8229V12.8174Z" fill="white"/>
<path id="Vector_14" d="M22.4138 8.26977C23.3057 8.15966 24.2142 7.74673 24.7207 8.03853C26.3228 8.95247 27.0881 10.6262 26.6312 11.876C26.2292 12.9606 26.1301 13.9076 26.9175 14.86C27.0386 15.0087 26.945 15.5593 26.7743 15.6914C26.2237 16.1043 25.5906 16.4071 24.985 16.754C24.6381 16.0658 24.2252 15.4051 23.9774 14.6839C23.8343 14.2709 23.9059 13.7589 23.9609 13.2964C24.1775 11.4612 23.6618 9.78566 22.4138 8.26977Z" fill="white"/>
<path id="Vector_15" d="M64.8954 10.984C65.3138 11.452 65.7213 11.909 66.1782 12.421C65.6772 13.8305 64.4715 14.337 63.0235 14.4746C62.6381 14.5132 62.2472 14.4801 61.8618 14.4801C60.4046 14.4801 59.443 15.1427 58.9768 16.4677C58.8942 16.4512 58.7896 16.4567 58.7126 16.4181C57.9968 16.0548 56.8186 16.2144 56.8957 14.9206C56.9618 13.8525 58.14 12.7348 59.2631 12.6357C59.5714 12.6082 59.8853 12.6192 60.1936 12.6357C61.6691 12.6853 63.1446 12.7569 64.1577 11.3529C64.2953 11.1657 64.6201 11.1162 64.8954 10.9895V10.984Z" fill="white"/>
<path id="Vector_16" d="M60.3642 8.0495C60.9974 8.42939 61.5039 8.7322 62.082 9.07906C61.5589 10.5986 60.5074 11.4355 59.0043 11.6722C57.5783 11.8925 56.4662 12.388 56.0643 13.9406C56.0037 14.1718 55.4091 14.4636 55.1338 14.403C54.5282 14.2764 53.9721 13.9406 53.394 13.6873C53.796 12.8945 54.0052 11.8704 54.6383 11.3694C55.4587 10.7197 56.6038 10.1912 57.6224 10.1582C59.0979 10.1141 59.7531 9.34884 60.3642 8.0495Z" fill="white"/>
<path id="Vector_17" d="M62.3298 19.1104C61.7352 18.758 61.1902 18.4112 60.6231 18.1084C59.9349 17.7395 60.0505 17.3266 60.4799 16.8421C61.7132 15.4711 63.3924 15.0142 64.9946 15.5152C66.5141 15.9887 67.6153 15.7795 68.6558 14.7774C68.7605 14.8435 68.799 14.86 68.821 14.8875C69.1899 15.3941 69.5588 15.9006 69.9277 16.4071C69.267 16.7705 68.6503 17.266 67.9401 17.4587C67.2904 17.6404 66.5417 17.5743 65.859 17.4807C63.8879 17.2109 63.5741 17.3266 62.3298 19.1049V19.1104Z" fill="white"/>
<path id="Vector_18" d="M47.2006 4.01387C47.509 4.01387 47.8228 3.96432 48.1201 4.02488C48.5385 4.10747 49.2763 4.22859 49.2983 4.40477C49.3754 5.0104 49.4249 5.99591 49.0836 6.21063C47.2061 7.40536 46.9143 9.07908 47.3493 10.973C47.2006 11.0942 47.1401 11.1933 47.0905 11.1878C46.3087 11.0611 45.3287 11.7108 44.7781 10.7473C44.189 9.71774 44.5634 7.95042 45.3507 7.00345C46.083 6.12254 46.7271 5.17006 47.4154 4.25061L47.2061 4.02488L47.2006 4.01387Z" fill="white"/>
<path id="Vector_19" d="M5.78662 26.7743C5.86921 25.8493 6.2546 25.1336 7.16304 25.0125C8.20361 24.8693 9.11755 25.3153 9.69564 26.1962C10.6316 27.6221 11.5841 28.971 13.6267 28.8389C13.6377 29.0151 13.6652 29.1968 13.6652 29.3729C13.6762 30.7824 13.5551 30.9366 12.1457 30.7659C10.8243 30.6062 9.74519 30.2208 9.17261 28.7123C8.65507 27.3469 7.27315 26.8073 5.78662 26.7743Z" fill="white"/>
<path id="Vector_20" d="M74.7946 22.8873C74.9213 23.5369 75.0424 24.1536 75.1525 24.7262C73.0769 25.7832 71.1113 26.7522 69.1733 27.7873C68.4466 28.1727 67.9181 27.991 67.6813 27.3248C67.4556 26.6972 66.916 25.8989 68.0612 25.4419C70.0653 24.6381 72.0473 23.7737 74.0459 22.9478C74.2441 22.8652 74.4918 22.9093 74.8001 22.8928L74.7946 22.8873Z" fill="white"/>
<path id="Vector_21" d="M78.9735 29.1197C77.8228 30.0998 76.4189 30.0887 75.1471 29.7144C73.5174 29.2354 72.1024 29.0317 70.9628 30.6393C70.2635 30.0777 69.6414 29.5767 69.0303 29.0867C69.7735 27.8314 71.5684 27.0276 72.8787 27.3689C73.611 27.5616 74.3102 27.8975 75.048 28.0571C75.5875 28.1728 76.2152 28.2554 76.7162 28.0957C78.2908 27.5947 78.2798 27.5451 78.968 29.1197H78.9735Z" fill="white"/>
</g>
</g>
</svg>
